<?xml version="1.0" encoding="iso-8859-1"?>
<!-- Generator: Adobe Illustrator 16.0.0, SVG Export Plug-In . SVG Version: 6.00 Build 0)  -->
<!DOCTYPE svg PUBLIC "-//W3C//DTD SVG 1.1//EN" "http://www.w3.org/Graphics/SVG/1.1/DTD/svg11.dtd">
<svg version="1.1" id="Capa_1" xmlns="http://www.w3.org/2000/svg" xmlns:xlink="http://www.w3.org/1999/xlink" x="0px" y="0px"
	 width="66.506px" height="66.506px" viewBox="0 0 66.506 66.506" style="enable-background:new 0 0 66.506 66.506;"
	 xml:space="preserve">
<g>
	<g>
		<path d="M45.505,66.506c-2.271,0-4.405-0.884-6.011-2.488L14.988,39.511c-1.646-1.646-2.546-3.921-2.479-6.255
			c-0.068-2.337,0.833-4.614,2.479-6.261L39.495,2.489C41.1,0.884,43.233,0,45.505,0c2.271,0,4.405,0.884,6.01,2.489
			c3.314,3.314,3.314,8.707,0,12.021L32.771,33.253l18.743,18.742c3.314,3.313,3.314,8.707,0,12.021
			C49.908,65.622,47.774,66.506,45.505,66.506z M45.505,4c-1.202,0-2.332,0.468-3.183,1.317L18.291,29.823
			c-0.891,0.893-0.833,2.084-0.833,3.355c0,0.051,0,0.102,0,0.151c0,1.271-0.058,2.461,0.833,3.353L42.56,61.188
			c0.851,0.851,1.862,1.317,3.063,1.317c1.203,0,2.272-0.468,3.123-1.317c1.755-1.754,1.725-4.609-0.03-6.365L28.544,34.667
			c-0.781-0.781-0.788-2.047-0.007-2.828L48.69,11.683c1.754-1.755,1.753-4.61-0.001-6.365C47.84,4.468,46.707,4,45.505,4z"/>
	</g>
</g>
<g>
</g>
<g>
</g>
<g>
</g>
<g>
</g>
<g>
</g>
<g>
</g>
<g>
</g>
<g>
</g>
<g>
</g>
<g>
</g>
<g>
</g>
<g>
</g>
<g>
</g>
<g>
</g>
<g>
</g>
</svg>
