<?xml version="1.0" encoding="iso-8859-1"?>
<!-- Generator: Adobe Illustrator 19.1.0, SVG Export Plug-In . SVG Version: 6.00 Build 0)  -->
<svg version="1.1" id="Capa_1" xmlns="http://www.w3.org/2000/svg" xmlns:xlink="http://www.w3.org/1999/xlink" x="0px" y="0px"
	 viewBox="0 0 126.318 126.318" style="enable-background:new 0 0 126.318 126.318;" xml:space="preserve">
<g>
	<path d="M45.43,57.757c-3.056,0-5.542-2.486-5.542-5.542s2.486-5.542,5.542-5.542s5.542,2.486,5.542,5.542
		S48.485,57.757,45.43,57.757z M45.43,49.673c-1.402,0-2.542,1.14-2.542,2.542s1.14,2.542,2.542,2.542s2.542-1.14,2.542-2.542
		S46.832,49.673,45.43,49.673z"/>
	<path d="M37.119,57.173c-0.039,0-0.079-0.001-0.118-0.004c-0.826-0.064-1.443-0.787-1.379-1.612
		c0.586-7.496,6.739-9.076,9.905-8.88c0.827,0.054,1.454,0.768,1.4,1.594c-0.054,0.826-0.758,1.446-1.59,1.4
		c-0.643-0.035-6.234-0.158-6.724,6.12C38.551,56.575,37.894,57.173,37.119,57.173z"/>
	<path d="M54.853,105.715c-1.98,0-27.225-0.953-34.674-47.772c-0.13-0.818,0.428-1.587,1.246-1.717
		c0.815-0.132,1.586,0.427,1.717,1.246c7.189,45.19,31.554,45.219,31.772,45.243c3.613,0,5.231-0.912,5.957-1.676
		c0.771-0.812,0.736-1.674,0.734-1.71c-0.001-0.026-0.004-0.088-0.004-0.114v-4.334c0-0.829,0.671-1.5,1.5-1.5s1.5,0.671,1.5,1.5
		v4.286c0.024,0.463,0.008,2.218-1.46,3.836c-1.632,1.8-4.391,2.712-8.198,2.712C54.922,105.715,54.892,105.715,54.853,105.715z"/>
	<path d="M40.208,11.601c-0.567,0-1.109-0.323-1.362-0.871c-0.348-0.752-0.02-1.644,0.732-1.991
		c13.979-6.462,23.557-4.796,23.958-4.722c0.814,0.15,1.353,0.933,1.203,1.748c-0.15,0.814-0.933,1.35-1.744,1.203
		c-0.134-0.024-9.151-1.519-22.158,4.494C40.633,11.556,40.419,11.601,40.208,11.601z"/>
	<path d="M12.05,75.587c-0.443,0-0.786-0.084-0.994-0.154c-0.792-0.217-1.443-0.949-2.341-2.604
		C6.834,69.361,3.92,61.625,1.993,53.549c-1.639-6.867-3.108-16.228-0.8-21.826c2.633-6.39,11.908-12.356,19.226-16.235
		c7.688-4.076,15.777-7.199,17.482-7.316l0,0c1.641-0.107,2.5,0.6,2.932,1.217c1.228,1.754,0.174,4.474-0.178,5.266L18.219,69.368
		c-1.349,3.237-2.95,5.233-4.762,5.942C12.925,75.519,12.447,75.587,12.05,75.587z M38.116,11.164
		c-1.031,0.124-8.475,2.812-16.458,7.063c-9.631,5.127-15.913,10.327-17.69,14.639C-0.245,43.083,9.74,69.893,12.086,72.59
		c0.499-0.026,1.88-0.814,3.36-4.367l22.451-54.747c0.371-0.845,0.591-1.912,0.495-2.307C38.337,11.162,38.248,11.154,38.116,11.164
		z"/>
	<path d="M63.305,95.003c-5.584,0-11.257-5.74-11.257-9.865c0-4.378,5.723-4.378,11.257-4.378c4.482,0,11.257,0,11.257,4.478
		C74.562,89.321,68.889,95.003,63.305,95.003z M63.305,83.76c-3.288,0-8.257,0-8.257,1.378c0,2.145,3.992,6.865,8.257,6.865
		s8.257-4.652,8.257-6.766C71.562,84.686,70.489,83.76,63.305,83.76z"/>
	<path d="M63.097,122.547c-2.609,0-4.804-0.927-6.521-2.756c-4.545-4.838-4.001-14.432-3.976-14.838
		c0.052-0.826,0.767-1.449,1.589-1.403c0.827,0.051,1.455,0.763,1.405,1.589c-0.005,0.087-0.486,8.714,3.171,12.602
		c0.801,0.851,1.735,1.396,2.832,1.646V97.631c0-0.829,0.671-1.5,1.5-1.5s1.5,0.671,1.5,1.5v23.417
		C64.597,121.876,63.925,122.547,63.097,122.547z"/>
	<path d="M80.889,57.757c-3.056,0-5.542-2.486-5.542-5.542s2.486-5.542,5.542-5.542s5.542,2.486,5.542,5.542
		S83.944,57.757,80.889,57.757z M80.889,49.673c-1.402,0-2.542,1.14-2.542,2.542s1.14,2.542,2.542,2.542s2.542-1.14,2.542-2.542
		S82.291,49.673,80.889,49.673z"/>
	<path d="M89.2,57.173c-0.775,0-1.433-0.597-1.494-1.383c-0.491-6.284-6.088-6.149-6.727-6.12c-0.827,0.061-1.534-0.583-1.584-1.407
		c-0.05-0.824,0.572-1.533,1.396-1.587c3.152-0.204,9.319,1.384,9.905,8.88c0.064,0.826-0.553,1.548-1.379,1.612
		C89.278,57.171,89.239,57.173,89.2,57.173z"/>
	<path d="M71.439,105.715c-0.041,0-0.069-0.005-0.093-0.001c-3.779,0-6.537-0.912-8.168-2.711c-1.468-1.618-1.484-3.374-1.46-3.836
		v-4.286c0-0.829,0.671-1.5,1.5-1.5c0.829,0,1.5,0.671,1.5,1.5v4.334c0,0.049-0.002,0.097-0.007,0.146
		c0.001,0.004-0.034,0.866,0.737,1.678c0.726,0.764,2.344,1.676,5.929,1.676c1.02-0.012,24.646-0.27,31.801-45.243
		c0.13-0.818,0.896-1.378,1.717-1.246c0.818,0.13,1.375,0.899,1.246,1.717C98.692,104.754,73.454,105.715,71.439,105.715z"/>
	<path d="M86.11,11.601c-0.21,0-0.425-0.045-0.628-0.139c-13.12-6.065-22.065-4.511-22.155-4.495
		C62.515,7.117,61.73,6.58,61.58,5.765c-0.15-0.814,0.388-1.597,1.203-1.748c0.401-0.074,9.981-1.74,23.958,4.722
		c0.752,0.347,1.08,1.239,0.732,1.991C87.219,11.278,86.677,11.601,86.11,11.601z"/>
	<path d="M114.269,75.587c-0.397,0-0.875-0.068-1.407-0.276c-1.812-0.709-3.414-2.706-4.759-5.935L85.646,14.614
		c-0.335-0.752-1.388-3.472-0.161-5.226c0.432-0.617,1.291-1.324,2.932-1.217c1.705,0.118,9.794,3.24,17.482,7.316
		c7.318,3.879,16.593,9.846,19.226,16.236c2.308,5.598,0.839,14.958-0.8,21.826c-1.927,8.076-4.84,15.812-6.722,19.279
		c-0.898,1.655-1.549,2.386-2.341,2.604C115.054,75.502,114.711,75.587,114.269,75.587z M87.926,11.169
		c-0.096,0.395,0.124,1.459,0.479,2.27l22.47,54.791c1.478,3.546,2.859,4.334,3.357,4.36c2.346-2.697,12.331-29.507,8.119-39.723
		c-1.777-4.313-8.06-9.512-17.69-14.64c-7.984-4.25-15.427-6.939-16.458-7.063C88.071,11.154,87.98,11.162,87.926,11.169z"/>
	<path d="M63.222,122.547c-0.829,0-1.5-0.671-1.5-1.5V97.631c0-0.829,0.671-1.5,1.5-1.5c0.829,0,1.5,0.671,1.5,1.5v21.756
		c1.096-0.25,2.031-0.795,2.832-1.646c3.657-3.887,3.177-12.515,3.171-12.602c-0.05-0.826,0.578-1.538,1.405-1.589
		c0.814-0.048,1.537,0.576,1.589,1.403c0.025,0.406,0.569,10-3.976,14.838C68.025,121.62,65.831,122.547,63.222,122.547z"/>
</g>
<g>
</g>
<g>
</g>
<g>
</g>
<g>
</g>
<g>
</g>
<g>
</g>
<g>
</g>
<g>
</g>
<g>
</g>
<g>
</g>
<g>
</g>
<g>
</g>
<g>
</g>
<g>
</g>
<g>
</g>
</svg>
