<svg id="Layer_1" height="512" viewBox="0 0 512 512" width="512" xmlns="http://www.w3.org/2000/svg" data-name="Layer 1"><path d="m425.221 238.917a16.076 16.076 0 0 1 3.715 5.269c2.055 4.672 1.6 9.855-1.369 15.405a6 6 0 1 0 10.586 5.652c9.239-17.3.512-30.894-5.393-35.662a6 6 0 1 0 -7.539 9.336z"/><path d="m299.615 176.911a6.012 6.012 0 0 0 8.451-.646c.077-.089 7.746-8.825 17.249-8.414 6.253.268 12.386 4.493 18.229 12.559a6 6 0 0 0 9.719-7.04 56.932 56.932 0 0 0 -7.312-8.359c2.874-7.192 1.743-15.8 1.566-17a6 6 0 0 0 -11.871 1.759 28.978 28.978 0 0 1 -.121 8.308 28.9 28.9 0 0 0 -3.44-1.2 26.451 26.451 0 0 0 -2.042-12.749 6 6 0 1 0 -10.828 5.172 15.26 15.26 0 0 1 .874 6.926 29.6 29.6 0 0 0 -3.291.754 24.31 24.31 0 0 0 -6.54-9.335 6 6 0 1 0 -7.586 9.3 12.972 12.972 0 0 1 3.289 5.343 40.34 40.34 0 0 0 -7.028 6.2 5.988 5.988 0 0 0 .682 8.422z"/><path d="m80.418 467.621a31.446 31.446 0 0 1 -12.288 21.759 7.017 7.017 0 0 0 4.223 12.62c.2 0 .4-.009.6-.025 8.394-.694 30.984-9.374 53.067-27.152a17.664 17.664 0 0 0 16.58 11.677h268.049a23.021 23.021 0 0 0 22.334-17.323c2.5-9.777 3.895-25.822-3.611-46.73-8.35-23.26-25.838-47.615-51.979-72.389-3.917-3.713-7.833-7.306-11.618-10.781-17.869-16.4-33.6-30.846-38.824-47.819a117.31 117.31 0 0 0 33.474-3.56 14.893 14.893 0 0 1 14 4c10.94 11.042 27 23.292 41.376 18.939 30.052-9.094 49.022-32.341 56.755-51.063 5.267-12.753 5.85-24.6 1.6-32.5-4.051-7.531-11.11-13.686-20.414-17.8a71.367 71.367 0 0 1 -20.276-13.674l-22.805-21.68c3.266.278 6.46.428 9.569.427 17.755 0 32.925-4.54 45.3-13.593 15.669-11.46 22.639-27.422 25.4-35.918a10.265 10.265 0 0 0 -1.891-9.8 10.138 10.138 0 0 0 -9.186-3.582c-31.119 4.181-51.581-14.7-58.115-21.873l28.688-63.711a5.864 5.864 0 0 0 .226-.581c1.914-5.794.508-11.277-3.583-13.969-3.159-2.079-8.462-2.594-13.864 2.2a6.371 6.371 0 0 0 -.46.455l-42.29 46.593a104.5 104.5 0 0 0 -20.12-12.921c-18.244-8.827-35.772-9.663-51.013-2.545a59.533 59.533 0 0 0 -5.545-4.646 8.7 8.7 0 0 0 -12.1 1.713 91.15 91.15 0 0 0 -6.526 9.687c-13.45-9.111-48.48-28.968-90.008-22.067-35.652 5.925-66.907 30.057-92.9 71.725a188.5 188.5 0 0 1 -28.713 35.34c-11.917 11.326-19.093 14.291-21.3 14.291h-.064a9.962 9.962 0 0 0 -7 17.3c1.058.972 2.308 2.037 3.712 3.133a63.176 63.176 0 0 0 -10.922 16.951c-5.85 13.372-9.877 35.542 4.157 65.215a20.282 20.282 0 0 1 -5 23.989 82.8 82.8 0 0 0 -16.4 19 6.2 6.2 0 0 0 -.38.618 66.723 66.723 0 0 0 -9.326 27.049c-2.863 24.86 8.009 52.312 32.314 81.59 19.657 23.676 29.027 44.919 27.097 61.431zm348.558-431.431 7.418-8.172-7.588 16.85a44.981 44.981 0 0 1 .17-8.678zm49.666 87.69c-16.157 44.382-62.183 40.275-83.168 35.8l-3.628-3.448 24.611-54.713c10.1 9.688 31.543 25.394 62.185 22.361zm-61.412-74.749a35.4 35.4 0 0 0 4.079 12.388l-6.119 13.59c-4.288-5.918-5.5-13.589-5.847-17.288zm-17.972 19.8c1.7 5.983 4.826 12.861 10.555 18.118l-8.213 18.239c-9-7.974-10.13-22.388-10.229-27.668zm-2.733 47.628-10.221 22.7c-16.188-15.086-16.783-32.423-16.515-37.861l10.81-11.91c1.767 9.012 6.001 20.131 15.926 27.072zm-14.159-46.872-32.866 36.156c-4.925-24.343-13.663-40.629-21.68-51.076 22.329-7.882 45.202 7.448 54.546 14.92zm-18.184 60.25-6.712-6.38a23.708 23.708 0 0 1 -3.738-4.608l5.033-5.406a61.48 61.48 0 0 0 5.417 16.394zm-54.964-77.575c7.456 6.423 22.964 23.7 29.334 60.008a36.257 36.257 0 0 0 10.65 19.884l76 72.242a83.358 83.358 0 0 0 23.691 15.956c4.77 2.11 11.193 5.994 14.7 12.512 2.463 4.578 1.649 13.1-2.123 22.231-6.377 15.44-23.073 36.27-49.141 44.159-6.652 2.014-17.365-3.779-29.376-15.9a26.947 26.947 0 0 0 -25.353-7.22c-69.1 16.766-84.848-34.579-85.48-36.754a6 6 0 1 0 -11.547 3.266 71.414 71.414 0 0 0 19.6 30.172 70.058 70.058 0 0 0 34.01 16.976c4.609 22.54 23.523 39.9 43.479 58.221 3.751 3.444 7.63 7 11.479 10.651 55.8 52.879 56.665 90.013 52.217 107.442a11.03 11.03 0 0 1 -10.707 8.29h-268.051a5.661 5.661 0 0 1 -5.649-5.66v-3.663a147.108 147.108 0 0 0 13.378-14.825c21.792-27.786 30.012-59.618 24.431-94.61-2.421-15.185-8.47-35.609-23.531-46.675a19.719 19.719 0 0 1 -7.994-17.8c2.336-22.758 9.475-66.774 31.032-105.874 25.719-46.651 64.106-72.711 114.094-77.457a6.01 6.01 0 0 0 5.426-6.251c-.01-.264-.942-26.117 15.431-49.321zm-276.29 273.609a54.57 54.57 0 0 1 6.812-20.688c30.994-11.224 48.033-31.84 56.906-47.342 9.844-17.2 12.013-31.8 12.1-32.411a6 6 0 0 0 -11.877-1.709c-.019.132-2.038 13.308-10.88 28.58a91.946 91.946 0 0 1 -25.664 28.658 32.4 32.4 0 0 0 2.643-32.24c-18.928-40.019-1.075-63.272 6.232-70.546a52.636 52.636 0 0 0 23.4 5.525 54.214 54.214 0 0 0 6.128-.35c25.4-2.889 51.314-23.367 77.032-60.864a6 6 0 0 0 -9.9-6.787c-23.662 34.5-46.7 53.249-68.491 55.727a42.294 42.294 0 0 1 -30.655-8.84c17.079-4.7 42.4-33.289 55.706-54.614 24.067-38.57 52.521-60.85 84.58-66.219 38.487-6.445 71.872 13.593 82.717 21.075a102.065 102.065 0 0 0 -7.834 33.654c-51.571 6.445-91.289 34.355-118.121 83.022-22.582 40.962-30.03 86.777-32.46 110.442a31.765 31.765 0 0 0 12.826 28.691c6.5 4.778 15.039 15.4 18.786 38.895 5.033 31.56-2.376 60.264-22.023 85.314-16.468 21-38.306 34.955-53.454 41.913a44.1 44.1 0 0 0 4.9-15.843c1.079-9.232-.451-19.219-4.548-29.893 40.411-34.963 36.064-76.212 35.852-78a6 6 0 0 0 -11.919 1.389c.165 1.493 3.451 35.113-29.158 65.187a172.66 172.66 0 0 0 -20.01-29.176c-22.133-26.659-32.1-51.069-29.626-72.55z"/></svg>